<svg width="10" height="15" viewBox="0 0 10 15" fill="none" xmlns="http://www.w3.org/2000/svg"><path d="M8.5 305176e-10h-7C.672848 305176e-10.0.628133.0 1.40028V13.5358c0 .7721.672848 1.4002 1.5 1.4002h7C9.32715 14.936 10 14.3079 10 13.5358V1.40028C10 .628133 9.32715 305176e-10 8.5 305176e-10zM1.5.933529h7C8.77588.933529 9 1.14275 9 1.40028V11.202H1V1.40028C1 1.14275 1.22412.933529 1.5.933529zM8.5 14.0025h-7C1.22412 14.0025 1 13.7933 1 13.5358V12.1355H9V13.5358C9 13.7933 8.77588 14.0025 8.5 14.0025z" fill="#757575"/><path d="M2.35355 12.739C2.54882 12.9214 2.54882 13.217 2.35355 13.3993 2.15828 13.5817 1.84172 13.5817 1.64645 13.3993 1.45118 13.217 1.45118 12.9214 1.64645 12.739 1.84172 12.5567 2.15828 12.5567 2.35355 12.739z" fill="#757575"/></svg>