<svg aria-hidden="true" style="position:absolute;width:0;height:0" overflow="hidden">
  <defs/>
  <defs>
    <symbol id="icon-phone" viewBox="0 0 21 32">
      <path fill="var(--color1)" d="M18.1 0H3.2C1.4 0 0 1.3 0 3v25.9c0 1.6 1.4 3 3.2 3h15c1.7 0 3.1-1.4 3.1-3v-26C21.3 1.4 20 0 18.1 0zM3.2 2h15c.5 0 1 .4 1 1v20.9h-17v-21c0-.5.4-1 1-1zm15 27.9h-15a1 1 0 01-1-1v-3h17v3c0 .5-.5 1-1 1z"/>
    </symbol>
    <symbol id="icon-antenna" viewBox="0 0 32 32">
      <path fill="var(--color2, #212121)" d="M30.8 22.1l-8.5-8.5 1-4.6.7.1a2.2 2.2 0 10-2-1.4l-5 .6L9 .2a.5.5 0 00-.4-.2c-.1 0-.3 0-.4.2L6.7 1.7c-.2.2-.2.5 0 .7l.8.8A15 15 0 0010.2 21v6.7H3.6A2.7 2.7 0 001 30.4v1c0 .4.2.6.5.6H26c.3 0 .6-.2.6-.5v-1.1c0-1.5-1.2-2.7-2.7-2.7h-6.4V25a15 15 0 0010-1.5l1 .9.3.1.4-.1 1.5-1.5c.2-.3.2-.6 0-.8zM23.3 6.2a1 1 0 11.7 1.9 1 1 0 01-.7-1.9zM22 9.7l-.6 3-1.1-1.2L22 9.7zm-.6-.9l-1.9 2L18 9.2l3.4-.5zm2.6 20c.9 0 1.6.7 1.6 1.6v.5H2.1v-.5c0-.9.8-1.6 1.6-1.6H24zm-7.5-2.1v1h-5.3v-1h5.3zm-5.3-1.1v-4c0-1.3 1.2-2.4 2.7-2.4s2.6 1 2.6 2.3v4.1h-5.3zm6.4-1.7v-2.4c0-1.8-1.7-3.4-3.7-3.4-1.4 0-2.6.7-3.3 1.8A14 14 0 018.3 4L27 22.7a13.8 13.8 0 01-9.3 1.2zm11.3-.7L7.9 2l.7-.7 8 8 13 13.2-.7.7z"/>
      <path fill="var(--color3, #2196f3)" d="M13.9 20.3a1.6 1.6 0 100 3.2 1.6 1.6 0 100-3.2zm.3 2l-.3.1a.5.5 0 010-1 .5.5 0 01.3.8z"/>
    </symbol>
    <symbol id="icon-astronaut" viewBox="0 0 32 32">
      <path fill="var(--color3, #2196f3)" d="M32 4.5c0-.2-.3-.3-.5-.3l-1.9-.3-.8-1.7c-.2-.4-.8-.4-1 0L27 3.9l-2 .3a.5.5 0 00-.2.9L26 6.4l-.3 2c0 .1 0 .3.2.4.2.2.4.2.6 0l1.7-.8 1.7.9a.5.5 0 00.8-.6l-.3-1.9 1.3-1.3c.2-.2.2-.4.2-.6zM29.5 6c-.1 0-.2.2-.1.4l.1 1.1-1-.5a.5.5 0 00-.4 0l-1 .5.1-1-.1-.5-.8-.8 1.1-.2c.2 0 .3-.1.4-.3l.5-1 .5 1c0 .2.2.3.4.3l1.1.2-.8.8zm-3.4 14.5h-1v1h1v-1zm0 2.2h-1v1h1v-1zm1.1-1.1h-1v1h1v-1zm-2.2 0h-1v1h1v-1zm-2.6 4.8h-1v1h1v-1zm0 2.1h-1v1h1v-1zm1.1-1h-1.1v1h1v-1zm-2.2 0h-1v1h1v-1zM16 24.3h-1v1h1v-1zm0 2.1h-1v1h1v-1zm1-1.1h-1v1h1v-1zm-2 0h-1.1v1h1v-1zM5.9 6.1H4.8v1h1v-1zm0 2.2H4.8v1h1v-1zM7 7.2H5.8v1h1v-1zm-2.2 0h-1v1h1v-1z"/>
      <path fill="var(--color2, #212121)" d="M24.7 14.2c-.3-.4-.7-.7-1.2-.7-.5-.1-1 0-1.3.3l-1.3 1-1.9 1.4-1.3-.6a7 7 0 00-2.9-13.2A7 7 0 009 13H6l-3.2 1.6-2 1a1.8 1.8 0 001 3.2c.3 0 .6 0 .8-.2L4 18l2.3-1.2h1.3l-5.4 5.4-1.3 1.3a1.7 1.7 0 000 2.4 1.7 1.7 0 002.3 0l1.3-1.3 1.8-1.3.9.9-1.8 1.7-1.3 1.4a1.7 1.7 0 000 2.3 1.7 1.7 0 002.3 0l3.5-3.4 1-1 5.2-5.7 3.5.5h.2l.1-.1 3.3-2.1 1.3-1.3c.7-.6.8-1.6.2-2.3zM2.1 17.8h-.5a.7.7 0 01-.2-1.2l1.3-.7.4 1.3-1 .6zm3.5-1.9l-1.5.8-.5-1.2 2-1v1.4zm15.1-6.6c0 1-.2 1.8-.6 2.6l-4.2-2c0-.5-.3-1-.7-1.3l1.4-4.9a6 6 0 014.1 5.6zM9 9.3a5.9 5.9 0 016.7-5.8L14 8.3a1.9 1.9 0 100 3.7c.7 0 1.3-.4 1.6-1l3.9 1.8A5.9 5.9 0 018.9 9.3zm6 .8a.8.8 0 01-1.6 0 .8.8 0 011.6 0zm-12.4 15c-.3.3-.7.3-.9 0a.6.6 0 010-.8l1-1 .8.9-1 1zM5.7 29c-.3.2-.6.2-.9 0a.6.6 0 010-.9l1-1 .8 1-1 .9zm3.5-3.5l-1.8 1.8-.9-.9 1.8-1.7.1-.2V24h-.1l-1.6-1.7h-.1l-.1-.1H6l-1.8 1.4-.9-1 2.4-2.3 4.4 4.3-1 1zm6.8-7a.6.6 0 00-.4 0v.1l-4.8 5.2-4.3-4.2 2.8-2.9a.5.5 0 00-.4-.9H6.7v-1.6H10a7 7 0 006.2 2l.1.1 2.5 1 .1.7.2 1-3-.5zm4 .2l-.3-1.6 1.5-1 .9 1.2-2 1.4zm3.8-2.9l-.9.8-.9-1.2.8-.6c.2-.2.4-.2.6-.2a.7.7 0 01.4 1.2z"/>
      <path fill="var(--color2, #212121)" d="M13.6 18.5l-2.1-2a.5.5 0 00-.8 0l-2.1 2a.5.5 0 000 .8l2.1 2.1a.5.5 0 00.8 0l2.1-2.1a.5.5 0 000-.8zm-2.5 1.8l-1.4-1.4 1.4-1.4 1.4 1.4-1.4 1.4zM17.2 5l-.3 1.1s1.7.5 1.7 2.2h1.1c0-2-1.7-3-2.5-3.2zm2.5 4.3h-1v1h1v-1z"/>
    </symbol>
    <symbol id="icon-client1" viewBox="0 0 32 32">
      <path fill="var(--color4, #afb1b8)" d="M5.4 0l4.7 4.4h13v12.4l4.7 4.4V0H5.4z"/>
      <path fill="var(--color4, #afb1b8)" d="M1.6 4.2v20.6h21.8v-8.1L10.3 4.2H1.6zm17.6 17.6H5V8h1v12.9h13.2v1zM7.9 28.7l.5-1.1h.4L8.1 29v.9h-.4V29l-.8-1.4h.4l.6 1zm2.2.6h-.9L9 30h-.4l.9-2.3h.4l.8 2.3h-.4l-.2-.6zm-.8-.3h.7l-.3-1-.4 1zm2.4.2V29l.4-.4-.2-.2V28l.1-.4.5-.1.4.1.1.4v.2l-.3.3h-.1l.4.6v-.4h.4c0 .3 0 .5-.2.7l.4.4H13l-.1-.2-.6.2c-.2 0-.4 0-.5-.2a.6.6 0 01-.2-.5zm.7.4l.4-.1-.5-.6-.3.3c0 .1 0 .2.2.3h.2zm-.2-1.5l.2.4.1-.2h.1v-.5h-.3v.2zm4.1 1c0 .3 0 .4-.2.6a1 1 0 01-.6.2l-.5-.1c-.2-.1-.3-.2-.3-.4l-.2-.6v-.2c0-.2 0-.4.2-.5l.3-.4.5-.1c.2 0 .4 0 .6.2l.2.5H16l-.2-.3-.3-.1c-.2 0-.3 0-.4.2l-.2.5v.2c0 .3 0 .4.2.6l.4.2.3-.1.2-.4h.3zm2.2-.3l-.1.6-.3.4a1 1 0 01-.5 0 1 1 0 01-.5 0 .9.9 0 01-.4-.4V28.1a.9.9 0 01.9-.5h.5l.3.5.1.6zm-.4-.1L18 28a.5.5 0 00-.4-.2c-.2 0-.3 0-.4.2a1 1 0 00-.2.5v.2c0 .2 0 .4.2.6l.4.2.4-.2.1-.6v-.1z"/>
    </symbol>
    <symbol id="icon-client2" viewBox="0 0 32 32">
      <path fill="var(--color4, #afb1b8)" d="M14.1 1.8h.6c.7 0 1.5.2 2.2.4V.4a13 13 0 00-3.2-.4h-.2a18.3 18.3 0 00-9.3 2.5V20a19.5 19.5 0 018.4-2.4h.7v-1.8A21.2 21.2 0 006.6 17l-.7.2V3.6l.3-.1a17.4 17.4 0 017.3-1.7h.5z"/>
      <path fill="var(--color4, #afb1b8)" d="M18.5 3.7a15.8 15.8 0 01-3.4-.4v17.3c1.1.2 2.3.4 3.4.4a18.4 18.4 0 009.3-2.6V1.3a19.6 19.6 0 01-9.3 2.4zm7 .3l.6-.3v13.7l-.3.1a17 17 0 01-8.5 1.6H17V5h1.6a21 21 0 007-1.2zM5.4 26a1 1 0 00-.7-.3 1 1 0 00-.4 0 1 1 0 00-.5.6l-.1.4v2.8l.3.3.3.2h.8a1 1 0 00.5-.6v-.6h-.5v.4l-.2.1h-.1l-.1.1a.3.3 0 01-.3-.1l-.1-.3v-2.6a.3.3 0 01.4 0H5v.6h.7v-.3a1 1 0 00-.3-.7zM9 26a1 1 0 00-.7-.3 1 1 0 00-.7.2 1 1 0 00-.2.4l-.1.4v2.7l.3.3.3.2a1 1 0 00.8 0s.2 0 .3-.2l.2-.3.1-.4V26.3a1 1 0 00-.3-.4zm-.3 3a.4.4 0 01-.1.3.4.4 0 01-.6 0 .4.4 0 010-.3v-2.3a.4.4 0 01.1-.3.4.4 0 01.6 0 .4.4 0 01.1.3V29zm5.1 1v-4.3h-.6l-.8 2.3-.8-2.3H11V30h.6v-2.6l.6 1.8h.3l.6-1.8V30h.7zm3.4-4l-.3-.2h-1.4V30h.6v-1.7h.3l.6-.1.3-.3.2-.4a3 3 0 000-1l-.3-.5zm-.3 1.3v.2l-.2.2H16v-1.4h.6l.1.2.1.2v.6zm3.1-1.6h-.4l-1 4.3h.6l.2-1h.8l.2 1h.6l-1-4.3zm-.5 2.8l.3-1.6.3 1.6h-.6zm4.5-.2l-1-2.6h-.5V30h.6v-2.6L24 30h.6v-4.3H24v2.6zm3.7-2.6l-.5 1.7-.5-1.7H26l.9 2.5V30h.6v-1.8l.8-2.5h-.6zm-24 5.5H4v.8h.2v-.8h.3V31h-.8v.2zm2.4-.2l-.3 1H6v-.2h.4l.1.2h.2l-.4-1h-.2zm0 .6l.1-.4.2.4H6zm2.5 0h.2v.1l-.2.1h-.2l-.1-.3c0-.2 0-.3.3-.3s.2 0 .2.1H9c0-.2-.2-.3-.4-.3l-.4.1-.1.2c-.1 0 0 .1 0 .2l.1.4a.5.5 0 00.4.1c.1 0 .3 0 .4-.2v-.3h-.4v.1zM11 31h-.2v1h.7v-.2H11V31zm2.1 0H13v1h.2v-1zm2.1.7l-.4-.7h-.2v1h.1v-.7l.4.7h.2v-1h-.1v.7zm1.8-.2h.5v-.1H17v-.2h.5V31h-.7v1h.8v-.2H17v-.3zm4.5-.1H21V31h-.2v1h.2v-.4h.4v.4h.2v-1h-.2v.4zm1.8.1h.5v-.1h-.5v-.2h.6V31H23v1h.8v-.2h-.6v-.3zm2.6 0c.1 0 .2 0 .2-.2a.2.2 0 000-.2l-.4-.1h-.4v1h.2v-.4h.2l.3.4h.2l-.1-.2-.2-.3zm-.2 0h-.2v-.3h.4v.1l-.2.1zm2.1 0h.5v-.1h-.5v-.2h.5V31h-.7v1h.7v-.2h-.5v-.3z"/>
    </symbol>
    <symbol id="icon-client3" viewBox="0 0 32 32">
      <path fill="var(--color4, #afb1b8)" d="M5.5 31.1l.2.2-.5.3-.6.1-.5-.1a1.2 1.2 0 01-.7-.7 1.6 1.6 0 010-1.2A1.3 1.3 0 014 29a1.7 1.7 0 011.2 0l.4.2-.2.2h-.2a1 1 0 00-.3-.2 1.2 1.2 0 00-.6 0 1 1 0 00-.4.3 1 1 0 00-.2.3v1l.2.3.4.2h.6a.9.9 0 00.5-.2zm4.4-.8l-.1.6-.3.4-.5.3H8c-.2 0-.3-.2-.5-.3l-.3-.4v-1.2l.3-.4.5-.3h1c.2 0 .4.2.5.3l.3.4v.6zm-.4 0v-.5a.9.9 0 00-.5-.6H8a.9.9 0 00-.5.6v1l.2.3.3.2h1a.9.9 0 00.5-.5v-.5zm3.4.5a3.5 3.5 0 01.1-.1l1-1.7h.4v2.7h-.3v-2.2l-1 1.7h-.3l-1-1.7v2.1h-.4V29h.4l1 1.8h.1zm3.7-.2v1h-.4V29h1.3l.4.2.2.3v.7l-.3.3a1 1 0 01-.3.2h-.9zm0-.3h.7l.3-.1V30l.1-.2a.5.5 0 00-.1-.4.8.8 0 00-.6-.2h-.4v1.1zm5.1 1.4h-.3l-.1-.1-.3-.7h-1.3l-.2.7H19l1.2-2.7h.4l1.1 2.8zm-1.9-1H21l-.4-1.2-.1-.2v.1l-.1.1-.5 1.1zm3.6-1.7l1.7 2v-2.1h.4v2.8H25.2l-1.7-2.2v2.2H23v-2.8h.2zm4.9 1.6v1h-.4v-1l-1-1.7h.3l.1.1.7 1v.4l.1-.1.1-.1.7-1.1h.4l-1 1.6zm-15.6-6.3h.5c2.6-1 4.8-2.9 6.3-5.1s2.3-5 2.2-7.7L19 8.8c.6 2.9.3 5.9-.8 8.6s-3 5.1-5.4 6.9z"/>
      <path fill="var(--color4, #afb1b8)" d="M11.7 24.2a14.6 14.6 0 006.2-16l-4-4a18 18 0 01-2.2 20zm13.7-9.5a14 14 0 01-7 9.2 12.6 12.6 0 008.7-7.6l-1.7-1.6z"/>
      <path fill="var(--color4, #afb1b8)" d="M24.8 14.3L22.5 12a13.5 13.5 0 01-8 12.2h1.6a14 14 0 008.7-10zM12 2.7L9.2 0C6.7 1 4.6 2.5 3.1 4.6S.8 9.2.7 11.8c0 2.8 1 5.5 2.9 7.7s4.3 3.8 7.2 4.5A17.6 17.6 0 0012 2.7zm19.3 11.2c0-3.4-1.5-6.6-4-9a13.5 13.5 0 00-14-2.8l17 16.3c.7-1.4 1-3 1-4.5z"/>
    </symbol>
    <symbol id="icon-client4" viewBox="0 0 32 32">
      <path fill="var(--color4, #afb1b8)" d="M5 12.5c-1 0-1.7.7-1.7 1.6 0 1 .8 1.6 1.7 1.6.9 0 1.6-.7 1.6-1.6 0-.9-.7-1.6-1.6-1.6zm12-.5c0-1.2-.4-2.4-1.3-3.2s-2.1-1.4-3.4-1.4c-1.2 0-2.4.5-3.3 1.4s-1.4 2-1.4 3.2v6.8s9.5-1 9.5-6.8zM0 21a3.3 3.3 0 005.6 2.3c.6-.6 1-1.5 1-2.3v-4.7S0 17 0 21zm3.3.8a.9.9 0 01-.8-.5.8.8 0 01.2-.9l.4-.2a.9.9 0 011 .3.8.8 0 01-.2 1c0 .2-.2.2-.3.3h-.3zm6.7-.5h-.6v.7H9v-1.7h1.1v.3h-.7v.4h.6v.3zm1.7-.1v.4l-.3.3-.4.1h-.4l-.2-.4-.1-.4v-.5l.3-.3.4-.1h.4l.2.4.1.4zm-.3 0l-.1-.5-.3-.1-.3.1v.9l.3.1h.3v-.5zm1.5.4l-.1-.2-.3-.1-.2-.1c-.2-.1-.3-.3-.3-.4v-.3l.3-.2h.6l.2.2.1.3H13l-.1-.2h-.4v.4l.2.1.5.2.1.4-.1.3-.5.1h-.4l-.2-.2v-.3h.3c0 .2 0 .3.3.3l.2-.1c.1-.1 0 0 0-.1zm1.8-1h-.5V22H14v-1.4h-.5v-.3h1.3v.3zm1.3.7h-.7v.4h.8v.3h-1.2v-1.7h1.2v.3h-.8v.4h.7v.3zm1 0h-.4v.7h-.3v-1.7h.6l.5.1.2.4-.1.3-.2.2.3.7h-.4l-.3-.6zm-.4-.2h.5l.1-.3v-.1l-.3-.1h-.3v.5zm2.2.3v.6h-.4v-1.7h1l.3.3v.3l-.1.4-.5.1h-.3zm0-.3h.5v-.4l-.2-.1h-.3v.5zm2.2.2h-.7v.4h.8v.3H20v-1.7h1v.3h-.8v.4h.7v.3zm1.6-.7h-.5V22h-.3v-1.4h-.6v-.3h1.4v.3zm1.3.7h-.7v.4h.8v.3h-1.2v-1.7H24v.3h-.8v.4h.7v.3zm1 0h-.4v.7h-.3v-1.7h.6l.5.1.1.4v.3l-.3.2.4.7h-.4l-.3-.6zm-.4-.2h.5l.1-.3v-.1l-.3-.1h-.3v.5zm2.1.5v-.2l-.3-.1-.3-.1c-.2-.1-.3-.3-.3-.4v-.3l.3-.2h.7l.2.2v.3h-.3v-.2h-.5v.4l.3.1.4.2.2.4-.2.3-.5.1H26l-.3-.2v-.3h.3c0 .2.1.3.3.3l.2-.1.1-.1z"/>
    </symbol>
    <symbol id="icon-client5" viewBox="0 0 32 32">
      <path fill="var(--color4, #afb1b8)" d="M2.4 24.6c.2.1.2.3.2.5a.9.9 0 01-.3.7c-.2.2-.5.3-.8.2H0v-3.4h1.5c.2 0 .5 0 .8.2a.8.8 0 01.2.7l-.1.5-.5.3c.2 0 .4.1.5.3zM.7 24h1l.1-.2c.1 0 0-.2 0-.2a.4.4 0 000-.4.6.6 0 00-.5 0H.7v.8zm1 1.4l.2-.2V25a.4.4 0 00-.1-.3.6.6 0 00-.5-.2H.7v1h.7l.4-.1zm3.7.6l-.8-1.3h-.3V26h-.7v-3.5h1.3c.3 0 .7 0 1 .3l.2.7-.2.7a1 1 0 01-.6.4l.9 1.4h-.8zm-1.1-1.8h.6c.4 0 .6-.2.6-.5a.5.5 0 00-.2-.4.6.6 0 00-.4-.1h-.6v1zm4.9 1.2H7.8l-.2.7h-.7L8 22.6h1l1.3 3.5h-.7l-.3-.7zm-.2-.6l-.5-1.4-.5 1.4h1zm5 1.2h-.7l-1.6-2.3V26H11v-3.5h.7l1.6 2.4v-2.4h.7V26zm4-.8c-.2.3-.4.5-.7.6a2 2 0 01-1 .3h-1.2v-3.5h1.2c.4 0 .7 0 1 .2.3.1.5.3.6.6a2 2 0 010 1.8zm-.9 0a1.3 1.3 0 000-1.7c-.2-.2-.5-.3-.8-.3h-.5v2.2h.5c.3 0 .6 0 .8-.3zM9.6 3.3s9 3.3 8.8 8.2v8.3s-9-3.4-8.7-8.3V3.3zm16.7 14.6a11 11 0 015.7-2.1v-2.6c-2.3.9-4.3 2.5-5.7 4.7z"/>
      <path fill="var(--color4, #afb1b8)" d="M25.3 18.7a12 12 0 016.7-6V5.1S19.3 10 19.6 17v11.7l1.4-.6V27c.3-3.2 1.9-6.2 4.3-8.3z"/>
      <path fill="var(--color4, #afb1b8)" d="M24.1 23c0-.8.2-1.6.5-2.4a11.4 11.4 0 00-2.7 7.1l2.4-1.3c-.2-1-.3-2.2-.2-3.4zm.5 0c0 1.1 0 2.1.2 3.2C28.2 24 32 20.9 32 17v-.4c-2.5.3-4.8 1.4-6.6 3.1a12 12 0 00-.8 3.4z"/>
    </symbol>
    <symbol id="icon-client6" viewBox="0 0 32 32">
      <path fill="var(--color4, #afb1b8)" d="M16 15.4l-.1-.7v-1.1c0-.3 0-.6.2-.8s.4-.2.7-.2c.3 0 .5 0 .6.2.2.2.3.4.2.7v.2h-.5v-.5L17 13h-.4l-.1.2v1.9a.3.3 0 00.3.2l.2-.1v-.7h.6v.3l-.1.6c-.2.2-.4.3-.7.3s-.6-.1-.7-.3zm2.4 0l-.2-.7v-1.1c0-.4 0-.6.2-.8s.4-.2.7-.2c.3 0 .6 0 .7.2l.2.8v1c0 .4 0 .7-.2.8s-.4.3-.7.3-.6-.1-.7-.3zm1-.3v-2h-.1L19 13l-.2.1v2.1h.5zm1.3-2.5h.6l.4 2.1.5-2h.6v3h-.4v-2.2l-.5 2.1h-.3l-.5-2v2h-.5v-3zm2.8 0h1c.5 0 .8.3.8.9 0 .5-.3.8-.9.8h-.3v1.3h-.6v-3zm.8 1.3a.4.4 0 00.3 0l.1-.4v-.3l-.1-.1H24v.8h.2zm1.7-1.3h.7l.6 3h-.5l-.1-.7H26l-.1.7h-.5l.6-3zm.6 2l-.2-1.3-.2 1.3h.4zm1.3-2h.4l.7 1.7v-1.7h.5v3h-.4l-.8-1.8v1.8H28v-3zm2.7 1.9l-.6-1.9h.5l.4 1.2.4-1.2h.5l-.6 1.9v1.1h-.6v-1.1zM17 17v.1h-.5v1.2h-.2v-1.2h-.5v-.2H17zm1.4 1.3h-.1l-.2-.4h-.7v.4H17l.6-1.4h.2l.6 1.4zm-.9-.5h.5l-.2-.6-.3.6zm1.9.4h.2a.7.7 0 00.2 0v-.4h-.2v-.1h.4v.5a.8.8 0 01-.3.1H19.1L19 18a.7.7 0 01-.2-.5v-.3l.2-.2.2-.1h.3a1 1 0 01.3 0h.2v.2H19.7l-.2-.1h-.2l-.2.1v.8l.2.2h.2zm1.9 0h.6v.1h-.8V17h.2v1.3zm1.3.1h-.2V17h.2v1.4zm.7-1.3l.9 1v-1h.1v1.3h-.1l-.9-1v1h-.1V17h.1zm2.5 0H25v.5h.6v.2H25v.5h.7v.1h-1V17h1zM5.1 8.4l8.8 2.4V19L5 16.7V8.4zm-.5-.7v9.4l9.9 2.6v-9.3l-10-2.7z"/>
      <path fill="var(--color4, #afb1b8)" d="M9.9 24L0 21.5v-9.3l9.9 2.6v9.4zM4.7 8.3l8.7 2.3-3.7 3.5-8.6-2.3 3.6-3.5zm-.1-.6L0 12.1l9.9 2.6 4.6-4.3-10-2.7zm5.8 15.8l4-3.8-4-1v4.8z"/>
    </symbol>
    <symbol id="icon-clock" viewBox="0 0 32 32">
      <path fill="var(--color2, #212121)" d="M31.3 15.3a15.3 15.3 0 10-19.8 14.6h.4l.2-.4 4-12.3a2 2 0 10-1-3.6l-5-5.1a.6.6 0 00-1 .9l5.2 5a2 2 0 00.5 2.4l-3.7 11.7a14 14 0 1110.6-.4l-.4-1.9a.6.6 0 00-1-.3l-3.9 3.4a.6.6 0 00.2 1.1l5 1.6a.6.6 0 00.8-.8l-.4-1.8c5.6-2.4 9.3-8 9.3-14.1zM16 14.7a.6.6 0 110 1.2.6.6 0 010-1.2zm2 14.8l2.3-2 .6 3-2.8-1z"/>
      <path fill="var(--color3, #2196f3)" d="M15.4 3.2v1.3a.6.6 0 101.2 0V3.2a.6.6 0 00-1.2 0zM3.9 14.7a.6.6 0 000 1.2h1.3a.6.6 0 100-1.2H3.9zM28.1 16a.6.6 0 100-1.3h-1.3a.6.6 0 000 1.2h1.3z"/>
    </symbol>
    <symbol id="icon-diagram" viewBox="0 0 32 32">
      <path fill="var(--color3, #2196f3)" d="M15 15h1v4.8h-1V15zm4.2 2.1h1v2.7h-1V17zm-8.5 1.6h1v1h-1v-1zm-3.2-.5h1v1.6h-1v-1.6z"/>
      <path fill="var(--color2, #212121)" d="M1.6 28.3h25.6c.9 0 1.6-.7 1.6-1.6v-2.1c0-1-.7-1.6-1.6-1.6h-.5V9.7l3-2.9a1.6 1.6 0 10-.8-.8l-2.2 2.2V7c0-1-.8-1.6-1.6-1.6H3.7c-.9 0-1.6.7-1.6 1.6v16h-.5c-.9 0-1.6.7-1.6 1.6v2c0 1 .7 1.7 1.6 1.7zM30.4 4.8a.5.5 0 110 1.1.5.5 0 010-1zM3.2 7c0-.3.2-.6.5-.6h21.4c.2 0 .5.3.5.6v2.2l-1 1V8c0-.3-.3-.5-.6-.5H4.8c-.3 0-.5.2-.5.5v13.4c0 .3.2.5.5.5H24c.3 0 .5-.2.5-.5v-9.7l1-1V23H3.3V7zM8 13.9a1.6 1.6 0 101.1 2.7l1.9 1 .6-.1 4-4.5 3.8 3 .7-.1 3.4-3.2v8.1H5.3V8.6h18.2v2.6l-3.8 3.6-4-3a.5.5 0 00-.6.1l-4 4.5-1.5-.7v-.2c0-.9-.7-1.6-1.6-1.6zm.5 1.6a.5.5 0 11-1 0 .5.5 0 011 0zm3.2 8.5h5.4v.6c0 .3-.3.5-.6.5h-4.2a.5.5 0 01-.6-.5V24zm-10.6.6c0-.3.2-.6.5-.6h9v.6c0 .8.8 1.6 1.7 1.6h4.2c1 0 1.6-.8 1.6-1.6V24h9c.4 0 .6.3.6.6v2c0 .4-.2.6-.5.6H1.6a.5.5 0 01-.5-.5v-2.1z"/>
    </symbol>
    <symbol id="icon-envelope" viewBox="0 0 32 32">
      <path fill="var(--color1)" d="M29 4H3C1.3 4 0 5.3 0 6.8v16.8c0 1.5 1.3 2.8 3 2.8h26c1.7 0 3-1.3 3-2.8V6.8C32 5.3 30.7 4 29 4zm0 1.9h.4L16 16.8 2.6 5.9H29zm0 18.6H3c-.6 0-1-.4-1-.9V7.9l13.3 10.8c.2.2.5.2.7.2l.7-.2L30 8v15.7c0 .5-.4 1-1 1z"/>
    </symbol>
    <symbol id="icon-facebook1" viewBox="0 0 32 32">
      <path fill="var(--color4, #afb1b8)" d="M21.3 5.3h3v-5C23.6.1 22 0 20 0c-4.2 0-7.1 2.6-7.1 7.5V12H8.2v5.7H13V32h5.7V17.7h4.5l.7-5.7h-5.2V8c0-1.6.4-2.7 2.7-2.7z"/>
    </symbol>
    <symbol id="icon-facebookwhite" viewBox="0 0 32 32">
      <path fill="var(--color5, #fff)" d="M21.3 5.3h3v-5C23.6.1 22 0 20 0c-4.2 0-7.1 2.6-7.1 7.5V12H8.2v5.7H13V32h5.7V17.7h4.5l.7-5.7h-5.2V8c0-1.6.4-2.7 2.7-2.7z"/>
    </symbol>
    <symbol id="icon-iconsend" viewBox="0 0 32 32">
      <path fill="var(--color5, #fff)" d="M32 0L0 18l10.2 3.8L26 7 14 23.2V32l5.7-6.7L27 28l5-28z"/>
    </symbol>
    <symbol id="icon-instagram2" viewBox="0 0 32 32">
      <path fill="#afb1b8)" d="M32 9.4c-.1-1.7-.4-2.9-.8-3.9s-1-2-1.8-2.8A7.9 7.9 0 0026.5.8c-1-.4-2.1-.6-3.8-.7A109.5 109.5 0 005.6.8c-1 .4-2 1-2.9 1.9C2 3.5 1.3 4.5 1 5.5.5 6.5.2 7.7.2 9.4a109.5 109.5 0 00.7 17c.4 1.2 1 2.1 1.8 3 .8.7 1.8 1.4 2.9 1.8 1 .4 2.2.6 3.9.7a117.2 117.2 0 0017-.7 8.2 8.2 0 004.7-4.7c.4-1 .7-2.2.8-3.9V9.4zm-3 13c0 1.6-.2 2.5-.5 3a5.3 5.3 0 01-3 3c-.6.3-1.4.6-3 .6a112.7 112.7 0 01-15.9-.5 5 5 0 01-1.8-1.2 5 5 0 01-1.2-1.9c-.2-.5-.5-1.4-.5-3a112.7 112.7 0 01.5-15.8c.3-.7.7-1.3 1.2-1.9a5 5 0 011.8-1.1 8 8 0 013-.6 112.7 112.7 0 0115.9.6 5 5 0 011.8 1.1 5 5 0 011.2 1.9c.3.5.5 1.4.6 3a112.7 112.7 0 010 12.9z"/>
      <path fill="#afb1b8)" d="M16 7.8a8.2 8.2 0 100 16.4 8.2 8.2 0 000-16.4zm0 13.5a5.3 5.3 0 110-10.6 5.3 5.3 0 010 10.6zM26.5 7.5a2 2 0 11-3.8 0 2 2 0 013.8 0z"/>
    </symbol>
    <symbol id="icon-instagramwhite" viewBox="0 0 32 32">
      <path fill="var(--color5, #fff)" d="M32 9.4c-.1-1.7-.4-2.9-.8-3.9s-1-2-1.8-2.8A7.9 7.9 0 0026.5.8c-1-.4-2.1-.6-3.8-.7A109.5 109.5 0 005.6.8c-1 .4-2 1-2.9 1.9C2 3.5 1.3 4.5 1 5.5.5 6.5.2 7.7.2 9.4a109.5 109.5 0 00.7 17c.4 1.2 1 2.1 1.8 3 .8.7 1.8 1.4 2.9 1.8 1 .4 2.2.6 3.9.7a117.2 117.2 0 0017-.7 8.2 8.2 0 004.7-4.7c.4-1 .7-2.2.8-3.9V9.4zm-3 13c0 1.6-.2 2.5-.5 3a5.3 5.3 0 01-3 3c-.6.3-1.4.6-3 .6a112.7 112.7 0 01-15.9-.5 5 5 0 01-1.8-1.2 5 5 0 01-1.2-1.9c-.2-.5-.5-1.4-.5-3a112.7 112.7 0 01.5-15.8c.3-.7.7-1.3 1.2-1.9a5 5 0 011.8-1.1 8 8 0 013-.6 112.7 112.7 0 0115.9.6 5 5 0 011.8 1.1 5 5 0 011.2 1.9c.3.5.5 1.4.6 3a112.7 112.7 0 010 12.9z"/>
      <path fill="var(--color5, #fff)" d="M16 7.8a8.2 8.2 0 100 16.4 8.2 8.2 0 000-16.4zm0 13.5a5.3 5.3 0 110-10.6 5.3 5.3 0 010 10.6zM26.5 7.5a2 2 0 11-3.8 0 2 2 0 013.8 0z"/>
    </symbol>
    <symbol id="icon-linkedin1" viewBox="0 0 32 32">
      <path fill="var(--color4, #afb1b8)" d="M32 32V20.3c0-5.8-1.2-10.2-8-10.2a7 7 0 00-6.2 3.4h-.1v-2.9h-6.4V32H18V21.4c0-2.8.6-5.5 4-5.5s3.5 3.2 3.5 5.7V32H32zM.5 10.6h6.7V32H.5V10.6zM3.8 0C1.8 0 0 1.7 0 3.8s1.7 4 3.8 4a4 4 0 003.9-4C7.7 1.8 6 0 3.8 0z"/>
    </symbol>
    <symbol id="icon-linkedinwhite" viewBox="0 0 32 32">
      <path fill="var(--color5, #fff)" d="M32 32V20.3c0-5.8-1.2-10.2-8-10.2a7 7 0 00-6.2 3.4h-.1v-2.9h-6.4V32H18V21.4c0-2.8.6-5.5 4-5.5s3.5 3.2 3.5 5.7V32H32zM.5 10.6h6.7V32H.5V10.6zM3.8 0C1.8 0 0 1.7 0 3.8s1.7 4 3.8 4a4 4 0 003.9-4C7.7 1.8 6 0 3.8 0z"/>
    </symbol>
    <symbol id="icon-twitter1" viewBox="0 0 32 32">
      <path fill="var(--color4, #afb1b8)" d="M32 6c-1.2.6-2.5 1-3.8 1.1 1.4-.8 2.4-2 3-3.6-1.4.7-2.8 1.3-4.3 1.6a6.6 6.6 0 00-11.2 6A18.6 18.6 0 012.2 4.2a6.6 6.6 0 002 8.8c-1 0-2-.4-3-.8 0 3.2 2.4 5.9 5.3 6.5a6.5 6.5 0 01-3 0 6.6 6.6 0 006.2 4.6A13.2 13.2 0 010 26.1 18.5 18.5 0 0028.7 9.5c1.3-1 2.4-2 3.3-3.4z"/>
    </symbol>
    <symbol id="icon-twitterwhite" viewBox="0 0 32 32">
      <path fill="var(--color5, #fff)" d="M32 8.1a16 16 0 01-3.8.8 5.5 5.5 0 003-2.8c-1.4.6-2.8 1-4.3 1.2a7.4 7.4 0 00-4.7-1.6c-3.7 0-6.6 2.3-6.6 5.1l.1 1.2A20.7 20.7 0 012.2 6.6a5 5 0 00-.9 2.6c0 1.8 1.2 3.4 3 4.3-1.1 0-2.1-.3-3-.7 0 2.6 2.3 4.6 5.2 5.1a8.3 8.3 0 01-3 0c1 2.1 3.3 3.6 6.2 3.6A15.7 15.7 0 010 23.6 22 22 0 0010 26c12.1 0 18.7-7.7 18.7-14.5v-.6A12 12 0 0032 8z"/>
    </symbol>
  </defs>
</svg>
