<svg width="20" height="16" viewBox="0 0 20 16" fill="none" xmlns="http://www.w3.org/2000/svg"><g clip-path="url(#clip0)"><path d="M20 3.06559C19.2563 3.31934 18.4637 3.48753 17.6375 3.5692 18.4875 3.17447 19.1363 2.5542 19.4412 1.80656 18.6488 2.17406 17.7738 2.43364 16.8412 2.5785 16.0887 1.95531 15.0162 1.56934 13.8462 1.56934 11.5763 1.56934 9.74875 3.00239 9.74875 4.7592 9.74875 5.01198 9.77625 5.25503 9.84375 5.48642 6.435 5.35711 3.41875 4.08642 1.3925 2.15072 1.03875 2.62809.83125 3.17448.83125 3.76267.83125 4.86711 1.5625 5.84614 2.6525 6.41295 1.99375 6.40323 1.3475 6.25448.8 6.02017.8 6.02989.8 6.04253.8 6.05517.8 7.60489 2.22125 8.89211 4.085 9.18864 3.75125 9.25961 3.3875 9.29364 3.01 9.29364 2.7475 9.29364 2.4825 9.28198 2.23375 9.2392 2.765 10.5021 4.2725 11.4306 6.065 11.4607 4.67 12.3095 2.89875 12.8209.98125 12.8209.645 12.8209.3225 12.8092.0 12.7771 1.81625 13.6881 3.96875 14.2082 6.29 14.2082 13.835 14.2082 17.96 9.34711 17.96 5.1335 17.96 4.99253 17.9538 4.85642 17.945 4.72128 18.7588 4.27211 19.4425 3.71114 20 3.06559z" fill="#fff"/></g><defs><clipPath id="clip0"><path d="M0 0h20v15.5556H0z" fill="#fff" transform="translate(0 0.111084)"/></clipPath></defs></svg>